HIERARCHY
ROOT Hips
{
  OFFSET 196.326 95.9168 97.7182
  CHANNELS 6 Xposition Yposition Zposition Zrotation Xrotation Yrotation
  JOINT LeftUpLeg
  {
    OFFSET 8.64259 1.95398 -2.38835
    CHANNELS 3 Zrotation Xrotation Yrotation
    JOINT LeftLeg
    {
      OFFSET 43.7702 0 0
      CHANNELS 3 Zrotation Xrotation Yrotation
      JOINT LeftFoot
      {
        OFFSET 40.6238 0 0
        CHANNELS 3 Zrotation Xrotation Yrotation
        JOINT LeftToeBase
        {
          OFFSET 12.7242 0 0
          CHANNELS 3 Zrotation Xrotation Yrotation
          End Site
          {
            OFFSET 0 0 0
          }
        }
      }
    }
  }
  JOINT RightUpLeg
  {
    OFFSET -8.2249 1.95398 -2.59336
    CHANNELS 3 Zrotation Xrotation Yrotation
    JOINT RightLeg
    {
      OFFSET 43.5653 0 0
      CHANNELS 3 Zrotation Xrotation Yrotation
      JOINT RightFoot
      {
        OFFSET 40.6238 0 0
        CHANNELS 3 Zrotation Xrotation Yrotation
        JOINT RightToeBase
        {
          OFFSET 12.7242 0 0
          CHANNELS 3 Zrotation Xrotation Yrotation
          End Site
          {
            OFFSET 0 0 0
          }
        }
      }
    }
  }
  JOINT Spine
  {
    OFFSET 0.165834 0.87714 6.61349
    CHANNELS 3 Zrotation Xrotation Yrotation
    JOINT Spine1
    {
      OFFSET 7.38963 1.71661e-005 0
      CHANNELS 3 Zrotation Xrotation Yrotation
      JOINT Spine2
      {
        OFFSET 11.9445 1.14441e-005 0
        CHANNELS 3 Zrotation Xrotation Yrotation
        JOINT Spine3
        {
          OFFSET 14.7254 4.19617e-005 0
          CHANNELS 3 Zrotation Xrotation Yrotation
          JOINT Spine4
          {
            OFFSET 10.9679 0 0
            CHANNELS 3 Zrotation Xrotation Yrotation
            JOINT RightShoulder
            {
              OFFSET 2.46616 -1.6653 3.69651
              CHANNELS 3 Zrotation Xrotation Yrotation
              JOINT RightArm
              {
                OFFSET 13.0012 0 0
                CHANNELS 3 Zrotation Xrotation Yrotation
                JOINT RightForeArm
                {
                  OFFSET 28.7848 1.52588e-005 0
                  CHANNELS 3 Zrotation Xrotation Yrotation
                  JOINT RightHand
                  {
                    OFFSET 26.5688 1.52588e-005 0
                    CHANNELS 3 Zrotation Xrotation Yrotation
                    End Site
                    {
                      OFFSET 0 0 0
                    }
                  }
                }
              }
            }
            JOINT LeftShoulder
            {
              OFFSET 2.38034 -1.29275 -3.75231
              CHANNELS 3 Zrotation Xrotation Yrotation
              JOINT LeftArm
              {
                OFFSET 16.3182 6.10351e-005 0
                CHANNELS 3 Zrotation Xrotation Yrotation
                JOINT LeftForeArm
                {
                  OFFSET 27.0901 0 0
                  CHANNELS 3 Zrotation Xrotation Yrotation
                  JOINT LeftHand
                  {
                    OFFSET 24.5451 1.52588e-005 0
                    CHANNELS 3 Zrotation Xrotation Yrotation
                    End Site
                    {
                      OFFSET 0 0 0
                    }
                  }
                }
              }
            }
            JOINT Neck
            {
              OFFSET 5.0226 -0.0266342 0
              CHANNELS 3 Zrotation Xrotation Yrotation
              JOINT Head
              {
                OFFSET 6.69363 2.86102e-005 0
                CHANNELS 3 Zrotation Xrotation Yrotation
                End Site
                {
                  OFFSET 0 0 0
                }
              }
            }
          }
        }
      }
    }
  }
}
MOTION
Frames:	12
Frame Time:	0.0416667
-31.1532 9.66686 11.3157 0.0457365 -1.79202 78.1112 -175.207 10.6469 89.9724 -20.0198 32.4154 -0.593381 51.3797 -2.84345 8.74468 136.022 62.9164 -46.0491 -179.64 12.972 88.3813 -28.3544 -7.63417 -4.80417 54.6607 1.42316 1.25128 59.3329 11.7346 44.051 0.479888 6.32692 -90.6075 14.2225 0.652719 -1.30933 2.551 0.594455 -1.33677 -19.9818 1.01602 -1.05268 0.0308757 1.01603 -1.05266 94.2527 -40.0513 -95.9964 -43.3241 38.6279 61.5252 -21.3723 5.40181 -144.759 -49.942 -4.84735 8.99332 -98.417 -38.3572 61.7704 54.2334 -27.1042 82.2964 13.1233 14.9154 -154.72 59.1143 11.0549 14.2594 38.0153 -20.5302 16.9895 -1.92004 -27.3898 -12.585 
-31.1761 9.70294 11.3225 -0.00347046 -1.72611 78.0979 -174.902 10.7225 90.0767 -19.8706 32.7854 -0.842971 51.4581 -2.72516 9.18684 138.869 61.6628 -49.45 -179.559 13.1246 88.4251 -28.5323 -7.71842 -4.87408 55.0075 1.33973 1.17958 59.3458 11.7599 44.1259 0.440532 6.36809 -90.6349 14.1394 0.561887 -1.35086 2.46789 0.501901 -1.37426 -20.0641 0.941864 -1.11957 -0.0514281 0.941878 -1.11959 94.3505 -39.4188 -95.9472 -43.3805 39.8499 61.6893 -20.225 4.31547 -144.901 -49.173 -4.39526 8.03601 -98.1961 -38.972 62.3994 52.9113 -27.1815 81.474 13.1288 14.5442 -154.667 60.5103 11.4769 14.4421 35.6879 -21.4113 15.2313 1.88581 -27.5062 -11.6679 
-31.1645 9.71517 11.3209 0.0541066 -1.65655 77.9933 -175.364 10.7067 89.8088 -20.1022 32.4196 -0.526354 51.6297 -2.54883 9.09896 139.6 61.2727 -50.3645 -179.663 13.0333 88.2655 -28.4623 -7.91411 -4.83166 55.1328 1.28505 1.13427 59.1708 11.7153 44.2922 0.469616 6.39626 -90.6557 14.0835 0.609718 -1.39863 2.41189 0.547582 -1.4241 -20.12 1.00184 -1.15077 -0.107362 1.00185 -1.15077 94.9727 -39.1654 -94.8911 -45.0854 40.9815 62.3732 -18.1799 -0.103257 -145.704 -47.7477 -4.20601 7.71768 -98.8173 -39.4109 61.5793 54.4158 -26.7782 81.9379 12.4259 16.2721 -153.803 58.4366 10.4731 13.5204 35.382 -21.371 15.3985 0.658344 -27.4411 -12.3683 
-31.1826 9.74771 11.3474 0.16429 -1.574 77.9736 -175.412 10.626 89.8042 -20.0473 32.5446 -0.496721 51.3789 -2.63595 9.41325 140.484 60.6376 -51.6086 -179.716 12.9812 88.2547 -28.5478 -7.80975 -4.8203 55.117 1.31154 1.15585 59.4145 11.7122 43.8036 0.453847 6.43726 -90.6566 14.0011 0.578656 -1.39489 2.32955 0.516702 -1.41902 -20.2022 0.971092 -1.15653 -0.189566 0.971086 -1.15655 94.9231 -39.1187 -94.9923 -45.3237 41.3305 62.8409 -17.822 -0.661119 -146.041 -47.8778 -4.25986 7.8157 -98.7599 -39.2367 61.5938 54.2099 -26.7979 81.882 12.6816 16.2049 -153.396 59.5096 10.6325 13.4177 34.651 -21.7113 15.0992 0.935946 -27.5975 -12.5653 
-31.1452 9.71973 11.3592 -0.014238 -1.7426 78.041 -175.268 10.6602 89.9016 -19.8638 32.4583 -0.575728 51.4133 -2.59393 9.49687 141.567 60.2769 -52.726 -179.539 13.1953 88.4006 -28.5668 -7.54415 -4.89864 54.7536 1.4016 1.23314 59.2758 11.8944 44.7974 0.285694 6.34432 -90.5268 14.1856 0.307774 -1.09933 2.5142 0.259117 -1.11183 -20.0183 0.623928 -0.956032 -0.00561494 0.623936 -0.956043 92.6653 -42.3847 -98.2509 -48.529 40.3318 63.6815 -17.5691 -1.39422 -145.898 -48.0658 -4.29962 7.83596 -95.9706 -38.6978 65.9471 50.6798 -26.4154 79.2347 13.2114 13.6415 -153.245 60.2436 10.6947 13.2724 33.643 -21.7359 13.0289 0.223916 -26.6209 -12.4531 
-31.1535 9.7446 11.3401 0.136949 -1.54018 78.0829 -175.417 10.6987 89.8979 -20.1309 32.5355 -0.457901 51.4333 -2.63783 9.27974 140.185 60.7904 -51.2484 -179.653 12.9573 88.3701 -28.4103 -7.67357 -4.80469 54.9466 1.33534 1.17822 59.2017 11.8164 44.6356 0.0693641 6.26872 -90.3961 14.3357 -0.0572811 -0.787347 2.66456 -0.0918793 -0.784075 -19.8688 0.182001 -0.768158 0.143844 0.181982 -0.768156 89.8573 -46.2204 -101.966 -53.8043 39.3894 65.5133 -16.9588 -3.47908 -145.846 -47.8658 -4.1748 7.51338 -93.3864 -38.057 70.0367 46.6357 -25.8213 76.481 13.58 10.7638 -153.643 58.2664 11.462 15.2529 32.6322 -21.5147 11.4608 -0.687684 -25.661 -12.8991 
-31.1399 9.72587 11.3517 0.0563579 -1.73024 78.1691 -175.287 10.7516 90.0131 -20.1813 32.5207 -0.523736 51.2364 -2.7715 9.44621 140.063 60.1407 -51.7599 -179.565 13.0112 88.4724 -28.3743 -7.78188 -4.83424 54.7441 1.38325 1.2183 59.3291 11.8397 44.4756 -0.0523833 6.14975 -90.2646 14.5735 -0.234258 -0.497696 2.90249 -0.255933 -0.486918 -19.6319 -0.0738527 -0.545101 0.380737 -0.0738559 -0.545089 86.9515 -49.3107 -105.672 -57.0029 37.7232 66.5209 -16.5497 -4.19218 -145.717 -48.0008 -4.12418 7.32587 -91.5376 -36.6732 72.7399 44.1261 -24.6708 75.0803 13.9305 9.21378 -153.254 59.3667 11.2986 14.5669 30.0206 -21.7069 9.35791 0.167879 -24.959 -12.6908 
-31.1292 9.73095 11.3474 0.0843363 -1.69188 78.169 -175.298 10.7088 90.0048 -20.1074 32.5529 -0.518684 51.2069 -2.76572 9.50416 140.473 59.8017 -52.3702 -179.551 13.0188 88.4864 -28.4498 -7.78317 -4.86052 54.8283 1.37434 1.2102 58.955 11.6298 44.3788 -0.184442 6.07552 -90.1715 14.7221 -0.449854 -0.27936 3.05127 -0.461719 -0.259316 -19.4841 -0.345101 -0.401653 0.528598 -0.345108 -0.401675 84.1967 -51.4594 -109.155 -58.3536 36.1816 66.3387 -17.1877 -2.30762 -145.153 -48.7091 -4.12633 7.23366 -90.1808 -36.0538 74.9182 42.1089 -23.9173 73.7767 14.0103 7.99125 -153.211 59.4294 11.3995 14.7092 29.3133 -21.5474 8.62315 -0.539739 -24.4477 -12.9117 
-31.1564 9.74252 11.3465 -0.022935 -1.59813 78.118 -175.345 10.8967 89.9502 -20.2235 32.4476 -0.508207 51.5365 -2.57836 9.27654 141.161 60.542 -52.1907 -179.546 13.085 88.4211 -28.3709 -7.69072 -4.8479 54.9254 1.32382 1.16939 59.3452 11.8425 44.4549 -0.296673 6.03425 -90.0714 14.8054 -0.622426 -0.0526031 3.13464 -0.62414 -0.0251824 -19.4016 -0.577862 -0.237233 0.611051 -0.57783 -0.237245 82.6754 -53.7691 -110.617 -58.4199 35.6977 64.6394 -16.4987 -2.32205 -144.599 -49.4324 -4.2078 7.1884 -88.8375 -35.3125 77.0862 40.2574 -23.4926 72.4685 13.8327 7.00605 -153.375 56.988 11.3834 15.6212 28.7655 -21.723 6.70464 -0.14179 -23.8769 -11.8762 
-31.1341 9.7107 11.3504 -0.0265085 -1.57137 78.051 -175.388 10.7309 89.8752 -19.9065 32.4603 -0.495606 51.2505 -2.7304 9.38634 140.431 60.0355 -52.1244 -179.56 13.2023 88.3824 -28.5644 -7.61626 -4.89441 54.6964 1.42982 1.25604 59.676 12.0064 44.4522 -0.377019 6.00926 -90.0009 14.856 -0.746448 0.107712 3.18529 -0.740983 0.140511 -19.3516 -0.744319 -0.121615 0.66109 -0.744318 -0.121602 80.7947 -55.2555 -112.78 -60.6462 35.5902 65.1341 -16.3533 -3.10937 -144.589 -48.1444 -3.97901 6.88372 -87.9463 -34.9045 78.5764 39.303 -23.258 71.6481 14.1023 6.23066 -153.18 59.37 11.4493 14.813 28.6754 -21.6639 5.66853 -0.435845 -23.3881 -11.3842 
-31.0916 9.67873 11.3426 -0.109061 -1.6276 78.1196 -175.393 10.8386 89.9111 -20.1093 32.4349 -0.476166 51.4771 -2.53399 9.53232 140.106 59.8355 -52.076 -179.544 13.223 88.4211 -28.4226 -7.54918 -4.85348 54.3088 1.51276 1.32815 59.9125 12.0993 44.358 -0.433045 5.97937 -89.9659 14.9164 -0.839808 0.192316 3.24568 -0.830535 0.229116 -19.2917 -0.858799 -0.0689755 0.720965 -0.858782 -0.0689746 78.9209 -56.81 -114.826 -62.1554 35.2502 64.8861 -16.2246 -3.34643 -144.264 -48.5777 -3.96068 6.72379 -87.3597 -34.6313 79.5669 38.2127 -22.9827 70.9469 13.8187 6.076 -153.104 58.9055 11.526 15.1145 27.7994 -21.5412 5.34425 -0.37534 -23.1647 -11.7007 
-31.0891 9.67584 11.344 -0.0840558 -1.66031 78.058 -175.427 10.8144 89.8467 -20.2235 32.1536 -0.443679 51.7069 -2.33566 9.54479 140.276 59.2829 -52.7032 -179.55 13.158 88.3669 -28.4208 -7.64272 -4.87695 54.5013 1.45043 1.27563 60.0882 12.039 43.7884 -0.468488 5.967 -89.9365 14.9414 -0.895288 0.260115 3.27071 -0.882965 0.299257 -19.2669 -0.932069 -0.0210044 0.74572 -0.932075 -0.0210003 77.381 -57.6984 -116.595 -63.3837 34.8936 65.1278 -16.1015 -3.47148 -144.154 -49.1581 -4.11295 6.96878 -87.1926 -34.406 79.8159 39.0231 -22.9659 71.5048 14.1834 5.80842 -153.256 58.4354 11.5869 15.3981 27.3566 -21.1543 5.39829 -0.322926 -22.8229 -11.851 
